<svg xmlns="http://www.w3.org/2000/svg" width="1720" height="920" viewBox="0 0 1720 920">
<rect width="100%" height="100%" fill="#fbfaf6"/>
<text x="860.0" y="52" text-anchor="middle" font-size="30" font-weight="700" font-family="Arial, Helvetica, sans-serif" fill="#0f172a">图3-3 P4-BISG 系统总体架构与模块交互关系（缩略版）</text>
<text x="860.0" y="84" text-anchor="middle" font-size="16" font-family="Arial, Helvetica, sans-serif" fill="#475569">按实际工作流顺序绘制，仅保留主模块标题与关键路径</text>

<defs>
  <marker id="arrow" viewBox="0 0 10 10" refX="8.5" refY="5" markerWidth="8" markerHeight="8" orient="auto-start-reverse">
    <path d="M 0 0 L 10 5 L 0 10 z" fill="#334155"/>
  </marker>
</defs>

<text x="70" y="150" font-size="22" font-weight="700" font-family="Arial, Helvetica, sans-serif" fill="#475569">输入层</text>
<text x="70" y="305" font-size="22" font-weight="700" font-family="Arial, Helvetica, sans-serif" fill="#475569">程序上下文层</text>
<text x="70" y="500" font-size="22" font-weight="700" font-family="Arial, Helvetica, sans-serif" fill="#475569">生成与调度层</text>
<text x="70" y="800" font-size="22" font-weight="700" font-family="Arial, Helvetica, sans-serif" fill="#475569">结果输出层</text>
<rect x="160" y="105" width="240" height="82" rx="14" fill="#eef3f7" stroke="#334155" stroke-width="2.2"/>
<text x="280.0" y="154.0" text-anchor="middle" font-size="24" font-weight="700" font-family="Arial, Helvetica, sans-serif" fill="#0f172a">用户意图输入</text>
<rect x="470" y="105" width="240" height="82" rx="14" fill="#eef3f7" stroke="#334155" stroke-width="2.2"/>
<text x="590.0" y="154.0" text-anchor="middle" font-size="24" font-weight="700" font-family="Arial, Helvetica, sans-serif" fill="#0f172a">程序输入文件</text>
<rect x="780" y="105" width="210" height="82" rx="14" fill="#eef3f7" stroke="#334155" stroke-width="2.2"/>
<text x="885.0" y="154.0" text-anchor="middle" font-size="24" font-weight="700" font-family="Arial, Helvetica, sans-serif" fill="#0f172a">运行配置</text>
<rect x="500" y="255" width="380" height="92" rx="14" fill="#f5efe6" stroke="#334155" stroke-width="2.2"/>
<text x="690.0" y="309.0" text-anchor="middle" font-size="28" font-weight="700" font-family="Arial, Helvetica, sans-serif" fill="#0f172a">ProgramContext 构建器</text>
<rect x="160" y="245" width="210" height="58" rx="14" fill="#f5efe6" stroke="#334155" stroke-width="2.2"/>
<text x="265.0" y="282.0" text-anchor="middle" font-size="20" font-weight="700" font-family="Arial, Helvetica, sans-serif" fill="#0f172a">解析器上下文</text>
<rect x="160" y="325" width="210" height="58" rx="14" fill="#f5efe6" stroke="#334155" stroke-width="2.2"/>
<text x="265.0" y="362.0" text-anchor="middle" font-size="20" font-weight="700" font-family="Arial, Helvetica, sans-serif" fill="#0f172a">控制流上下文</text>
<rect x="980" y="245" width="210" height="58" rx="14" fill="#f5efe6" stroke="#334155" stroke-width="2.2"/>
<text x="1085.0" y="282.0" text-anchor="middle" font-size="20" font-weight="700" font-family="Arial, Helvetica, sans-serif" fill="#0f172a">拓扑上下文</text>
<rect x="980" y="325" width="210" height="58" rx="14" fill="#f5efe6" stroke="#334155" stroke-width="2.2"/>
<text x="1085.0" y="362.0" text-anchor="middle" font-size="20" font-weight="700" font-family="Arial, Helvetica, sans-serif" fill="#0f172a">控制平面上下文</text>
<rect x="1260" y="285" width="210" height="58" rx="14" fill="#f5efe6" stroke="#334155" stroke-width="2.2"/>
<text x="1365.0" y="322.0" text-anchor="middle" font-size="20" font-weight="700" font-family="Arial, Helvetica, sans-serif" fill="#0f172a">状态对象上下文</text>
<rect x="100" y="470" width="230" height="220" rx="14" fill="#eef5ee" stroke="#334155" stroke-width="2.2"/>
<text x="215.0" y="588.0" text-anchor="middle" font-size="30" font-weight="700" font-family="Arial, Helvetica, sans-serif" fill="#0f172a">工作流调度</text>
<rect x="390" y="455" width="210" height="68" rx="14" fill="#eef5ee" stroke="#334155" stroke-width="2.2"/>
<text x="495.0" y="497.0" text-anchor="middle" font-size="21" font-weight="700" font-family="Arial, Helvetica, sans-serif" fill="#0f172a">Agent1 语义分析</text>
<rect x="680" y="455" width="220" height="68" rx="14" fill="#eef5ee" stroke="#334155" stroke-width="2.2"/>
<text x="790.0" y="497.0" text-anchor="middle" font-size="21" font-weight="700" font-family="Arial, Helvetica, sans-serif" fill="#0f172a">Agent3 任务审查</text>
<rect x="970" y="455" width="220" height="68" rx="14" fill="#eef5ee" stroke="#334155" stroke-width="2.2"/>
<text x="1080.0" y="497.0" text-anchor="middle" font-size="21" font-weight="700" font-family="Arial, Helvetica, sans-serif" fill="#0f172a">Agent2 数据包生成</text>
<rect x="1260" y="455" width="220" height="68" rx="14" fill="#eef5ee" stroke="#334155" stroke-width="2.2"/>
<text x="1370.0" y="497.0" text-anchor="middle" font-size="21" font-weight="700" font-family="Arial, Helvetica, sans-serif" fill="#0f172a">Agent3 序列审查</text>
<rect x="520" y="590" width="220" height="68" rx="14" fill="#eef5ee" stroke="#334155" stroke-width="2.2"/>
<text x="630.0" y="632.0" text-anchor="middle" font-size="21" font-weight="700" font-family="Arial, Helvetica, sans-serif" fill="#0f172a">Agent4 规则生成</text>
<rect x="840" y="590" width="220" height="68" rx="14" fill="#eef5ee" stroke="#334155" stroke-width="2.2"/>
<text x="950.0" y="632.0" text-anchor="middle" font-size="21" font-weight="700" font-family="Arial, Helvetica, sans-serif" fill="#0f172a">Agent5 规则审查</text>
<rect x="1160" y="590" width="220" height="68" rx="14" fill="#eef5ee" stroke="#334155" stroke-width="2.2"/>
<text x="1270.0" y="632.0" text-anchor="middle" font-size="21" font-weight="700" font-family="Arial, Helvetica, sans-serif" fill="#0f172a">Agent6 Oracle 预测</text>
<rect x="310" y="790" width="250" height="66" rx="14" fill="#eef3f7" stroke="#334155" stroke-width="2.2"/>
<text x="435.0" y="831.0" text-anchor="middle" font-size="24" font-weight="700" font-family="Arial, Helvetica, sans-serif" fill="#0f172a">参数修复与校验</text>
<rect x="670" y="790" width="180" height="66" rx="14" fill="#eef3f7" stroke="#334155" stroke-width="2.2"/>
<text x="760.0" y="831.0" text-anchor="middle" font-size="24" font-weight="700" font-family="Arial, Helvetica, sans-serif" fill="#0f172a">回退生成</text>
<rect x="970" y="790" width="250" height="66" rx="14" fill="#eef3f7" stroke="#334155" stroke-width="2.2"/>
<text x="1095.0" y="831.0" text-anchor="middle" font-size="26" font-weight="700" font-family="Arial, Helvetica, sans-serif" fill="#0f172a">testcase 输出</text>
<line x1="590" y1="187" x2="690" y2="255" stroke="#334155" stroke-width="2.6" marker-end="url(#arrow)"/>
<text x="650" y="220" text-anchor="middle" font-size="15" font-family="Arial, Helvetica, sans-serif" fill="#475569">构建上下文</text>
<line x1="280" y1="187" x2="215" y2="470" stroke="#334155" stroke-width="2.6" marker-end="url(#arrow)"/>
<text x="200" y="315" text-anchor="middle" font-size="15" font-family="Arial, Helvetica, sans-serif" fill="#475569">意图进入流程</text>
<line x1="885" y1="187" x2="250" y2="470" stroke="#334155" stroke-width="2.6" marker-end="url(#arrow)"/>
<text x="530" y="338" text-anchor="middle" font-size="15" font-family="Arial, Helvetica, sans-serif" fill="#475569">运行控制</text>
<line x1="690" y1="347" x2="215" y2="470" stroke="#334155" stroke-width="2.6" marker-end="url(#arrow)"/>
<text x="455" y="430" text-anchor="middle" font-size="15" font-family="Arial, Helvetica, sans-serif" fill="#475569">上下文支撑</text>
<line x1="690" y1="347" x2="495" y2="455" stroke="#334155" stroke-width="2.6" marker-end="url(#arrow)" stroke-dasharray="8,7"/>
<line x1="690" y1="347" x2="1095" y2="455" stroke="#334155" stroke-width="2.6" marker-end="url(#arrow)" stroke-dasharray="8,7"/>
<line x1="690" y1="347" x2="630" y2="590" stroke="#334155" stroke-width="2.6" marker-end="url(#arrow)" stroke-dasharray="8,7"/>
<line x1="690" y1="347" x2="1270" y2="590" stroke="#334155" stroke-width="2.6" marker-end="url(#arrow)" stroke-dasharray="8,7"/>
<line x1="330" y1="525" x2="390" y2="489" stroke="#334155" stroke-width="2.6" marker-end="url(#arrow)"/>
<text x="350" y="495" text-anchor="middle" font-size="15" font-family="Arial, Helvetica, sans-serif" fill="#475569">阶段启动</text>
<line x1="600" y1="489" x2="680" y2="489" stroke="#334155" stroke-width="2.6" marker-end="url(#arrow)"/>
<line x1="900" y1="489" x2="970" y2="489" stroke="#334155" stroke-width="2.6" marker-end="url(#arrow)"/>
<line x1="1190" y1="489" x2="1260" y2="489" stroke="#334155" stroke-width="2.6" marker-end="url(#arrow)"/>
<line x1="1370" y1="523" x2="1370" y2="624" stroke="#334155" stroke-width="2.6" marker-end="url(#arrow)"/>
<line x1="1370" y1="624" x2="1380" y2="624" stroke="#334155" stroke-width="2.6" marker-end="url(#arrow)"/>
<line x1="1160" y1="624" x2="1060" y2="624" stroke="#334155" stroke-width="2.6" marker-end="url(#arrow)"/>
<line x1="840" y1="624" x2="740" y2="624" stroke="#334155" stroke-width="2.6" marker-end="url(#arrow)"/>
<line x1="1060" y1="624" x2="1160" y2="624" stroke="#334155" stroke-width="2.6" marker-end="url(#arrow)"/>
<line x1="1370" y1="540" x2="1270" y2="590" stroke="#334155" stroke-width="2.6" marker-end="url(#arrow)" stroke-dasharray="8,7"/>
<text x="1370" y="560" text-anchor="middle" font-size="15" font-family="Arial, Helvetica, sans-serif" fill="#475569">packet_only</text>
<line x1="680" y1="515" x2="495" y2="515" stroke="#334155" stroke-width="2.6" marker-end="url(#arrow)" stroke-dasharray="8,7"/>
<text x="588" y="503" text-anchor="middle" font-size="15" font-family="Arial, Helvetica, sans-serif" fill="#475569">反馈</text>
<line x1="1260" y1="515" x2="1095" y2="515" stroke="#334155" stroke-width="2.6" marker-end="url(#arrow)" stroke-dasharray="8,7"/>
<text x="1178" y="503" text-anchor="middle" font-size="15" font-family="Arial, Helvetica, sans-serif" fill="#475569">反馈</text>
<line x1="840" y1="650" x2="630" y2="650" stroke="#334155" stroke-width="2.6" marker-end="url(#arrow)" stroke-dasharray="8,7"/>
<text x="735" y="638" text-anchor="middle" font-size="15" font-family="Arial, Helvetica, sans-serif" fill="#475569">反馈</text>
<line x1="1160" y1="650" x2="950" y2="650" stroke="#334155" stroke-width="2.6" marker-end="url(#arrow)" stroke-dasharray="8,7"/>
<text x="1055" y="638" text-anchor="middle" font-size="15" font-family="Arial, Helvetica, sans-serif" fill="#475569">反馈</text>
<line x1="1270" y1="658" x2="1270" y2="740" stroke="#334155" stroke-width="2.6" marker-end="url(#arrow)"/>
<line x1="1270" y1="740" x2="1095" y2="790" stroke="#334155" stroke-width="2.6" marker-end="url(#arrow)"/>
<text x="1185" y="735" text-anchor="middle" font-size="15" font-family="Arial, Helvetica, sans-serif" fill="#475569">结果汇总</text>
<line x1="560" y1="823" x2="670" y2="823" stroke="#334155" stroke-width="2.6" marker-end="url(#arrow)"/>
<line x1="850" y1="823" x2="970" y2="823" stroke="#334155" stroke-width="2.6" marker-end="url(#arrow)"/>
<line x1="560" y1="823" x2="670" y2="823" stroke="#334155" stroke-width="2.6" marker-end="url(#arrow)" stroke-dasharray="8,7"/>
<text x="615" y="808" text-anchor="middle" font-size="15" font-family="Arial, Helvetica, sans-serif" fill="#475569">失败回退</text>
</svg>