<svg xmlns="http://www.w3.org/2000/svg" width="1200" height="760" viewBox="0 0 1200 760">
<rect width="100%" height="100%" fill="#fbfaf6"/>
<text x="600" y="60" font-size="28" font-family="Arial, Helvetica, sans-serif" font-weight="bold" text-anchor="middle" fill="#16202a">图4-X 基于最终 testcase 的直接回放验证结果统计</text>
<text x="600" y="95" font-size="16" font-family="Arial, Helvetica, sans-serif" font-weight="normal" text-anchor="middle" fill="#475569">单位：程序个数</text>
<line x1="120" y1="640" x2="1120" y2="640" stroke="#334155" stroke-width="2"/>
<line x1="120" y1="120" x2="120" y2="640" stroke="#334155" stroke-width="2"/>
<line x1="112" y1="640" x2="1120" y2="640" stroke="#d6d3d1" stroke-width="1"/>
<text x="102" y="646" font-size="16" font-family="Arial, Helvetica, sans-serif" font-weight="normal" text-anchor="end" fill="#475569">0</text>
<line x1="112" y1="467" x2="1120" y2="467" stroke="#d6d3d1" stroke-width="1"/>
<text x="102" y="473" font-size="16" font-family="Arial, Helvetica, sans-serif" font-weight="normal" text-anchor="end" fill="#475569">1</text>
<line x1="112" y1="294" x2="1120" y2="294" stroke="#d6d3d1" stroke-width="1"/>
<text x="102" y="300" font-size="16" font-family="Arial, Helvetica, sans-serif" font-weight="normal" text-anchor="end" fill="#475569">2</text>
<line x1="112" y1="120" x2="1120" y2="120" stroke="#d6d3d1" stroke-width="1"/>
<text x="102" y="126" font-size="16" font-family="Arial, Helvetica, sans-serif" font-weight="normal" text-anchor="end" fill="#475569">3</text>
<rect x="235" y="120" width="180" height="520" rx="10" fill="#295c77"/>
<text x="325" y="106" font-size="22" font-family="Arial, Helvetica, sans-serif" font-weight="bold" text-anchor="middle" fill="#111827">3</text>
<text x="325" y="680" font-size="18" font-family="Arial, Helvetica, sans-serif" font-weight="bold" text-anchor="middle" fill="#1f2937">完全闭环验证</text>
<rect x="530" y="294" width="180" height="346" rx="10" fill="#9c6b3c"/>
<text x="620" y="280" font-size="22" font-family="Arial, Helvetica, sans-serif" font-weight="bold" text-anchor="middle" fill="#111827">2</text>
<text x="620" y="680" font-size="18" font-family="Arial, Helvetica, sans-serif" font-weight="bold" text-anchor="middle" fill="#1f2937">可执行但语义待完善</text>
<rect x="825" y="640" width="180" height="0" rx="10" fill="#9aa4af"/>
<text x="915" y="626" font-size="22" font-family="Arial, Helvetica, sans-serif" font-weight="bold" text-anchor="middle" fill="#111827">0</text>
<text x="915" y="680" font-size="18" font-family="Arial, Helvetica, sans-serif" font-weight="bold" text-anchor="middle" fill="#1f2937">不可执行</text>
<text x="40" y="380" font-size="20" font-family="Arial, Helvetica, sans-serif" font-weight="bold" text-anchor="middle" fill="#1f2937">程序数量</text>
</svg>